# xmcd CD database file
#
# Track frame offsets:
#	150
#	16654
#	28707
#	49799
#	61524
#	80199
#	95144
#	109036
#	125363
#	139738
#
# Disc length: 2046 seconds
#
# Revision: 0
# Processed by: cddbd v1.5.2PL0 Copyright (c) Steve Scherf et al.
# Submitted via: CDex 1.70beta2
#
DISCID=7d07fc0a
DTITLE=Crowell, Lynne - Cdn. - NS - Outside the Lines
DYEAR=2004
DGENRE=Country
TTITLE0=Canada, Oh Canada
TTITLE1=My Nova Scotia Home
TTITLE2=A Gift From the River
TTITLE3=What You Least Expect Most
TTITLE4=An Old  Letter
TTITLE5=Sone of the Causeway
TTITLE6=Down the Trail of Achin' Hearts
TTITLE7=Just Arround the Corner
TTITLE8=River Road
TTITLE9=Chosen Child's Lullaby (for Tianna)
EXTD=YEAR: 2004
EXTT0=
EXTT1=
EXTT2=
EXTT3=
EXTT4=
EXTT5=
EXTT6=
EXTT7=
EXTT8=
EXTT9=
PLAYORDER=
